<mxfile host="Electron" agent="Mozilla/5.0 (Windows NT 10.0; Win64; x64) AppleWebKit/537.36 (KHTML, like Gecko) draw.io/26.0.16 Chrome/132.0.6834.196 Electron/34.2.0 Safari/537.36" version="26.0.16">
  <diagram name="Page-1" id="e7e014a7-5840-1c2e-5031-d8a46d1fe8dd">
    <mxGraphModel dx="1112" dy="864" grid="1" gridSize="10" guides="1" tooltips="1" connect="1" arrows="1" fold="1" page="1" pageScale="1" pageWidth="1169" pageHeight="826" background="none" math="0" shadow="0">
      <root>
        <mxCell id="0" />
        <mxCell id="1" parent="0" />
        <mxCell id="2" value="Page 1" style="swimlane;whiteSpace=wrap" parent="1" vertex="1">
          <mxGeometry x="164.5" y="128" width="280" height="852" as="geometry" />
        </mxCell>
        <mxCell id="hN0Aww3Gr3hGMVVqUZrf-53" value="" style="rounded=0;whiteSpace=wrap;html=1;fillColor=light-dark(#23E9FF,var(--ge-dark-color, #121212));" vertex="1" parent="2">
          <mxGeometry x="25.5" y="60" width="200" height="490" as="geometry" />
        </mxCell>
        <mxCell id="7" value="First   " style="" parent="2" vertex="1">
          <mxGeometry x="60" y="110" width="110" height="50" as="geometry" />
        </mxCell>
        <mxCell id="8" value="Somewher" style="" parent="2" vertex="1">
          <mxGeometry x="60" y="292" width="110" height="50" as="geometry" />
        </mxCell>
        <mxCell id="10" value="Last" style="" parent="2" vertex="1">
          <mxGeometry x="60" y="472" width="110" height="50" as="geometry" />
        </mxCell>
        <mxCell id="3" value="Page 2" style="swimlane;whiteSpace=wrap" parent="1" vertex="1">
          <mxGeometry x="444.5" y="128" width="279.5" height="962" as="geometry" />
        </mxCell>
        <mxCell id="hN0Aww3Gr3hGMVVqUZrf-47" value="" style="rounded=0;whiteSpace=wrap;html=1;fillColor=light-dark(#23E9FF,var(--ge-dark-color, #121212));" vertex="1" parent="3">
          <mxGeometry x="40" y="52" width="200" height="210" as="geometry" />
        </mxCell>
        <mxCell id="15" value="start over" style="" parent="3" vertex="1">
          <mxGeometry x="85.5" y="74" width="110" height="50" as="geometry" />
        </mxCell>
        <mxCell id="16" value="start sprint" style="" parent="3" vertex="1">
          <mxGeometry x="85.5" y="142" width="110" height="50" as="geometry" />
        </mxCell>
        <mxCell id="18" value="Daily standup" style="" parent="3" vertex="1">
          <mxGeometry x="85.5" y="202" width="110" height="50" as="geometry" />
        </mxCell>
        <mxCell id="hN0Aww3Gr3hGMVVqUZrf-57" value="" style="rounded=1;whiteSpace=wrap;html=1;fillColor=light-dark(#9933FF,var(--ge-dark-color, #121212));" vertex="1" parent="3">
          <mxGeometry x="50" y="130" width="180" height="4" as="geometry" />
        </mxCell>
        <mxCell id="hN0Aww3Gr3hGMVVqUZrf-73" value="" style="rounded=0;whiteSpace=wrap;html=1;fillColor=light-dark(#23E9FF,var(--ge-dark-color, #121212));" vertex="1" parent="3">
          <mxGeometry x="40.5" y="292" width="200" height="210" as="geometry" />
        </mxCell>
        <mxCell id="hN0Aww3Gr3hGMVVqUZrf-74" value="start over" style="" vertex="1" parent="3">
          <mxGeometry x="86" y="314" width="110" height="50" as="geometry" />
        </mxCell>
        <mxCell id="hN0Aww3Gr3hGMVVqUZrf-76" value="Daily standup" style="" vertex="1" parent="3">
          <mxGeometry x="86" y="442" width="110" height="50" as="geometry" />
        </mxCell>
        <mxCell id="hN0Aww3Gr3hGMVVqUZrf-77" value="" style="rounded=1;whiteSpace=wrap;html=1;fillColor=light-dark(#9933FF,var(--ge-dark-color, #121212));" vertex="1" parent="3">
          <mxGeometry x="50.5" y="370" width="180" height="4" as="geometry" />
        </mxCell>
        <mxCell id="hN0Aww3Gr3hGMVVqUZrf-83" value="" style="rounded=0;whiteSpace=wrap;html=1;fillColor=light-dark(#23E9FF,var(--ge-dark-color, #121212));" vertex="1" parent="3">
          <mxGeometry x="41" y="542" width="200" height="298" as="geometry" />
        </mxCell>
        <mxCell id="hN0Aww3Gr3hGMVVqUZrf-84" value="start over" style="" vertex="1" parent="3">
          <mxGeometry x="86.5" y="564" width="110" height="50" as="geometry" />
        </mxCell>
        <mxCell id="hN0Aww3Gr3hGMVVqUZrf-85" value="Daily standup" style="" vertex="1" parent="3">
          <mxGeometry x="86.5" y="642" width="110" height="50" as="geometry" />
        </mxCell>
        <mxCell id="hN0Aww3Gr3hGMVVqUZrf-86" value="" style="rounded=1;whiteSpace=wrap;html=1;fillColor=light-dark(#9933FF,var(--ge-dark-color, #121212));" vertex="1" parent="3">
          <mxGeometry x="51" y="620" width="180" height="4" as="geometry" />
        </mxCell>
        <mxCell id="hN0Aww3Gr3hGMVVqUZrf-88" value="Sprint retorspective" style="" vertex="1" parent="3">
          <mxGeometry x="85" y="772" width="110" height="50" as="geometry" />
        </mxCell>
        <mxCell id="hN0Aww3Gr3hGMVVqUZrf-87" value="Sprint review" style="" vertex="1" parent="3">
          <mxGeometry x="85" y="712" width="110" height="50" as="geometry" />
        </mxCell>
        <mxCell id="4" value="Page 3" style="swimlane;whiteSpace=wrap" parent="1" vertex="1">
          <mxGeometry x="724.5" y="128" width="365.5" height="962" as="geometry" />
        </mxCell>
        <mxCell id="hN0Aww3Gr3hGMVVqUZrf-60" value="" style="rounded=0;whiteSpace=wrap;html=1;fillColor=light-dark(#CCFF99,var(--ge-dark-color, #121212));" vertex="1" parent="4">
          <mxGeometry x="55.5" y="40" width="164.5" height="128" as="geometry" />
        </mxCell>
        <mxCell id="hN0Aww3Gr3hGMVVqUZrf-41" value="sprint planning" style="" vertex="1" parent="4">
          <mxGeometry x="75.5" y="50" width="110" height="50" as="geometry" />
        </mxCell>
        <mxCell id="hN0Aww3Gr3hGMVVqUZrf-42" value="ok" style="ellipse;whiteSpace=wrap;html=1;" vertex="1" parent="4">
          <mxGeometry x="105.5" y="120" width="50" height="30" as="geometry" />
        </mxCell>
        <mxCell id="hN0Aww3Gr3hGMVVqUZrf-61" value="" style="rounded=0;whiteSpace=wrap;html=1;fillColor=light-dark(#CCFF99,var(--ge-dark-color, #121212));" vertex="1" parent="4">
          <mxGeometry x="57.75" y="190" width="262.25" height="118" as="geometry" />
        </mxCell>
        <mxCell id="hN0Aww3Gr3hGMVVqUZrf-62" value="Daily standup" style="" vertex="1" parent="4">
          <mxGeometry x="77.75" y="200" width="110" height="50" as="geometry" />
        </mxCell>
        <mxCell id="hN0Aww3Gr3hGMVVqUZrf-63" value="ok" style="ellipse;whiteSpace=wrap;html=1;" vertex="1" parent="4">
          <mxGeometry x="107.75" y="270" width="50" height="30" as="geometry" />
        </mxCell>
        <mxCell id="hN0Aww3Gr3hGMVVqUZrf-66" value="10 min" style="shape=hexagon;perimeter=hexagonPerimeter2;whiteSpace=wrap;html=1;fixedSize=1;" vertex="1" parent="4">
          <mxGeometry x="215.5" y="219" width="90" height="24" as="geometry" />
        </mxCell>
        <mxCell id="hN0Aww3Gr3hGMVVqUZrf-67" value="" style="edgeStyle=elbowEdgeStyle;elbow=horizontal;verticalAlign=bottom;endArrow=open;endSize=8;strokeColor=#FF0000;endFill=1;rounded=0;exitX=1;exitY=0.5;exitDx=0;exitDy=0;" edge="1" parent="4" source="hN0Aww3Gr3hGMVVqUZrf-62" target="hN0Aww3Gr3hGMVVqUZrf-66">
          <mxGeometry x="-240" y="20" as="geometry">
            <mxPoint x="67.5" y="232" as="targetPoint" />
            <mxPoint x="-74.5" y="195" as="sourcePoint" />
          </mxGeometry>
        </mxCell>
        <mxCell id="hN0Aww3Gr3hGMVVqUZrf-68" value="" style="rounded=0;whiteSpace=wrap;html=1;fillColor=light-dark(#CCFF99,var(--ge-dark-color, #121212));" vertex="1" parent="4">
          <mxGeometry x="57.75" y="392" width="262.25" height="118" as="geometry" />
        </mxCell>
        <mxCell id="hN0Aww3Gr3hGMVVqUZrf-69" value="Daily standup" style="" vertex="1" parent="4">
          <mxGeometry x="77.75" y="402" width="110" height="50" as="geometry" />
        </mxCell>
        <mxCell id="hN0Aww3Gr3hGMVVqUZrf-70" value="ok" style="ellipse;whiteSpace=wrap;html=1;" vertex="1" parent="4">
          <mxGeometry x="107.75" y="472" width="50" height="30" as="geometry" />
        </mxCell>
        <mxCell id="hN0Aww3Gr3hGMVVqUZrf-71" value="10 min" style="shape=hexagon;perimeter=hexagonPerimeter2;whiteSpace=wrap;html=1;fixedSize=1;" vertex="1" parent="4">
          <mxGeometry x="215.5" y="421" width="90" height="24" as="geometry" />
        </mxCell>
        <mxCell id="hN0Aww3Gr3hGMVVqUZrf-72" value="" style="edgeStyle=elbowEdgeStyle;elbow=horizontal;verticalAlign=bottom;endArrow=open;endSize=8;strokeColor=#FF0000;endFill=1;rounded=0;exitX=1;exitY=0.5;exitDx=0;exitDy=0;" edge="1" parent="4" source="hN0Aww3Gr3hGMVVqUZrf-69" target="hN0Aww3Gr3hGMVVqUZrf-71">
          <mxGeometry x="-964.5" y="-108" as="geometry">
            <mxPoint x="67.5" y="434" as="targetPoint" />
            <mxPoint x="-74.5" y="397" as="sourcePoint" />
          </mxGeometry>
        </mxCell>
        <mxCell id="hN0Aww3Gr3hGMVVqUZrf-95" value="" style="rounded=0;whiteSpace=wrap;html=1;fillColor=light-dark(#CCFF99,var(--ge-dark-color, #121212));" vertex="1" parent="4">
          <mxGeometry x="57.75" y="572" width="262.25" height="118" as="geometry" />
        </mxCell>
        <mxCell id="hN0Aww3Gr3hGMVVqUZrf-96" value="Daily standup" style="" vertex="1" parent="4">
          <mxGeometry x="77.75" y="582" width="110" height="50" as="geometry" />
        </mxCell>
        <mxCell id="hN0Aww3Gr3hGMVVqUZrf-97" value="ok" style="ellipse;whiteSpace=wrap;html=1;" vertex="1" parent="4">
          <mxGeometry x="107.75" y="652" width="50" height="30" as="geometry" />
        </mxCell>
        <mxCell id="hN0Aww3Gr3hGMVVqUZrf-98" value="10 min" style="shape=hexagon;perimeter=hexagonPerimeter2;whiteSpace=wrap;html=1;fixedSize=1;" vertex="1" parent="4">
          <mxGeometry x="215.5" y="601" width="90" height="24" as="geometry" />
        </mxCell>
        <mxCell id="hN0Aww3Gr3hGMVVqUZrf-99" value="" style="edgeStyle=elbowEdgeStyle;elbow=horizontal;verticalAlign=bottom;endArrow=open;endSize=8;strokeColor=#FF0000;endFill=1;rounded=0;exitX=1;exitY=0.5;exitDx=0;exitDy=0;" edge="1" parent="4" source="hN0Aww3Gr3hGMVVqUZrf-96" target="hN0Aww3Gr3hGMVVqUZrf-98">
          <mxGeometry x="-1689" y="-236" as="geometry">
            <mxPoint x="67.5" y="614" as="targetPoint" />
            <mxPoint x="-74.5" y="577" as="sourcePoint" />
          </mxGeometry>
        </mxCell>
        <mxCell id="hN0Aww3Gr3hGMVVqUZrf-103" value="" style="rounded=0;whiteSpace=wrap;html=1;fillColor=light-dark(#CCFF99,var(--ge-dark-color, #121212));" vertex="1" parent="4">
          <mxGeometry x="57.75" y="704" width="262.25" height="96" as="geometry" />
        </mxCell>
        <mxCell id="hN0Aww3Gr3hGMVVqUZrf-104" value="Sprint review" style="" vertex="1" parent="4">
          <mxGeometry x="195.5" y="722" width="110" height="50" as="geometry" />
        </mxCell>
        <mxCell id="hN0Aww3Gr3hGMVVqUZrf-105" value="ok" style="ellipse;whiteSpace=wrap;html=1;" vertex="1" parent="4">
          <mxGeometry x="85.5" y="762" width="50" height="30" as="geometry" />
        </mxCell>
        <mxCell id="hN0Aww3Gr3hGMVVqUZrf-120" value="" style="rounded=0;whiteSpace=wrap;html=1;fillColor=light-dark(#CCFF99,var(--ge-dark-color, #121212));" vertex="1" parent="4">
          <mxGeometry x="57.75" y="822" width="262.25" height="96" as="geometry" />
        </mxCell>
        <mxCell id="hN0Aww3Gr3hGMVVqUZrf-121" value="Sprint &#xa;retrospective" style="" vertex="1" parent="4">
          <mxGeometry x="195.5" y="840" width="110" height="50" as="geometry" />
        </mxCell>
        <mxCell id="hN0Aww3Gr3hGMVVqUZrf-122" value="ok" style="ellipse;whiteSpace=wrap;html=1;" vertex="1" parent="4">
          <mxGeometry x="85.5" y="880" width="50" height="30" as="geometry" />
        </mxCell>
        <mxCell id="14" value="" style="edgeStyle=elbowEdgeStyle;elbow=horizontal;verticalAlign=bottom;endArrow=open;endSize=8;strokeColor=#FF0000;endFill=1;rounded=0;entryX=0.003;entryY=0.195;entryDx=0;entryDy=0;entryPerimeter=0;" parent="1" target="hN0Aww3Gr3hGMVVqUZrf-47" edge="1">
          <mxGeometry x="484.5" y="148" as="geometry">
            <mxPoint x="499.5" y="218" as="targetPoint" />
            <mxPoint x="334.5" y="263" as="sourcePoint" />
          </mxGeometry>
        </mxCell>
        <mxCell id="hN0Aww3Gr3hGMVVqUZrf-54" value="" style="edgeStyle=elbowEdgeStyle;elbow=horizontal;verticalAlign=bottom;endArrow=open;endSize=8;strokeColor=#FF0000;endFill=1;rounded=0;entryX=0.465;entryY=-0.003;entryDx=0;entryDy=0;entryPerimeter=0;" edge="1" parent="1" source="15" target="hN0Aww3Gr3hGMVVqUZrf-53">
          <mxGeometry x="484.5" y="148" as="geometry">
            <mxPoint x="290" y="160" as="targetPoint" />
            <mxPoint x="345" y="273" as="sourcePoint" />
            <Array as="points">
              <mxPoint x="450" y="170" />
            </Array>
          </mxGeometry>
        </mxCell>
        <mxCell id="hN0Aww3Gr3hGMVVqUZrf-58" value="" style="edgeStyle=elbowEdgeStyle;elbow=horizontal;verticalAlign=bottom;endArrow=open;endSize=8;strokeColor=#FF0000;endFill=1;rounded=0;exitX=1;exitY=0.5;exitDx=0;exitDy=0;entryX=0;entryY=0.25;entryDx=0;entryDy=0;" edge="1" parent="1" source="16" target="hN0Aww3Gr3hGMVVqUZrf-60">
          <mxGeometry x="484.5" y="148" as="geometry">
            <mxPoint x="780" y="282.25" as="targetPoint" />
            <mxPoint x="344.5" y="273" as="sourcePoint" />
          </mxGeometry>
        </mxCell>
        <mxCell id="hN0Aww3Gr3hGMVVqUZrf-59" value="" style="edgeStyle=elbowEdgeStyle;elbow=horizontal;verticalAlign=bottom;endArrow=open;endSize=8;strokeColor=#FF0000;endFill=1;rounded=0;entryX=0.998;entryY=0.633;entryDx=0;entryDy=0;entryPerimeter=0;" edge="1" parent="1" source="hN0Aww3Gr3hGMVVqUZrf-42" target="hN0Aww3Gr3hGMVVqUZrf-47">
          <mxGeometry x="484.5" y="148" as="geometry">
            <mxPoint x="790" y="287" as="targetPoint" />
            <mxPoint x="650" y="305" as="sourcePoint" />
          </mxGeometry>
        </mxCell>
        <mxCell id="hN0Aww3Gr3hGMVVqUZrf-64" value="" style="edgeStyle=elbowEdgeStyle;elbow=horizontal;verticalAlign=bottom;endArrow=open;endSize=8;strokeColor=#FF0000;endFill=1;rounded=0;exitX=1;exitY=0.5;exitDx=0;exitDy=0;entryX=0.01;entryY=0.127;entryDx=0;entryDy=0;entryPerimeter=0;" edge="1" parent="1" source="18" target="hN0Aww3Gr3hGMVVqUZrf-61">
          <mxGeometry x="484.5" y="148" as="geometry">
            <mxPoint x="790" y="292.25" as="targetPoint" />
            <mxPoint x="650" y="305" as="sourcePoint" />
            <Array as="points" />
          </mxGeometry>
        </mxCell>
        <mxCell id="hN0Aww3Gr3hGMVVqUZrf-65" value="" style="edgeStyle=elbowEdgeStyle;elbow=horizontal;verticalAlign=bottom;endArrow=open;endSize=8;strokeColor=#FF0000;endFill=1;rounded=0;exitX=0;exitY=0.5;exitDx=0;exitDy=0;entryX=1.008;entryY=0.91;entryDx=0;entryDy=0;entryPerimeter=0;" edge="1" parent="1" source="hN0Aww3Gr3hGMVVqUZrf-63" target="hN0Aww3Gr3hGMVVqUZrf-47">
          <mxGeometry x="484.5" y="148" as="geometry">
            <mxPoint x="792" y="402" as="targetPoint" />
            <mxPoint x="650" y="365" as="sourcePoint" />
            <Array as="points" />
          </mxGeometry>
        </mxCell>
        <mxCell id="hN0Aww3Gr3hGMVVqUZrf-45" value="" style="edgeStyle=elbowEdgeStyle;elbow=horizontal;verticalAlign=bottom;endArrow=open;endSize=8;strokeColor=#FF0000;endFill=1;rounded=0;exitX=1;exitY=0.5;exitDx=0;exitDy=0;entryX=0.005;entryY=0.452;entryDx=0;entryDy=0;entryPerimeter=0;" edge="1" parent="1" source="8" target="hN0Aww3Gr3hGMVVqUZrf-73">
          <mxGeometry x="484.5" y="148" as="geometry">
            <mxPoint x="470" y="450" as="targetPoint" />
            <mxPoint x="400" y="450" as="sourcePoint" />
          </mxGeometry>
        </mxCell>
        <mxCell id="hN0Aww3Gr3hGMVVqUZrf-79" value="" style="edgeStyle=elbowEdgeStyle;elbow=horizontal;verticalAlign=bottom;endArrow=open;endSize=8;strokeColor=#FF0000;endFill=1;rounded=0;entryX=0.5;entryY=0;entryDx=0;entryDy=0;" edge="1" parent="1" source="hN0Aww3Gr3hGMVVqUZrf-74" target="8">
          <mxGeometry x="484.5" y="148" as="geometry">
            <mxPoint x="496" y="459" as="targetPoint" />
            <mxPoint x="345" y="383" as="sourcePoint" />
            <Array as="points">
              <mxPoint x="470" y="400" />
            </Array>
          </mxGeometry>
        </mxCell>
        <mxCell id="hN0Aww3Gr3hGMVVqUZrf-80" value="" style="edgeStyle=elbowEdgeStyle;elbow=horizontal;verticalAlign=bottom;endArrow=open;endSize=8;strokeColor=#FF0000;endFill=1;rounded=0;exitX=1;exitY=0.5;exitDx=0;exitDy=0;entryX=0.01;entryY=0.364;entryDx=0;entryDy=0;entryPerimeter=0;" edge="1" parent="1" source="hN0Aww3Gr3hGMVVqUZrf-76" target="hN0Aww3Gr3hGMVVqUZrf-68">
          <mxGeometry x="484.5" y="148" as="geometry">
            <mxPoint x="345" y="371" as="targetPoint" />
            <mxPoint x="568" y="452" as="sourcePoint" />
            <Array as="points">
              <mxPoint x="750" y="580" />
            </Array>
          </mxGeometry>
        </mxCell>
        <mxCell id="hN0Aww3Gr3hGMVVqUZrf-81" value="" style="edgeStyle=elbowEdgeStyle;elbow=horizontal;verticalAlign=bottom;endArrow=open;endSize=8;strokeColor=#FF0000;endFill=1;rounded=0;entryX=0.995;entryY=0.957;entryDx=0;entryDy=0;entryPerimeter=0;" edge="1" parent="1" source="hN0Aww3Gr3hGMVVqUZrf-70" target="hN0Aww3Gr3hGMVVqUZrf-73">
          <mxGeometry x="484.5" y="148" as="geometry">
            <mxPoint x="795" y="573" as="targetPoint" />
            <mxPoint x="651" y="605" as="sourcePoint" />
            <Array as="points">
              <mxPoint x="760" y="590" />
            </Array>
          </mxGeometry>
        </mxCell>
        <mxCell id="hN0Aww3Gr3hGMVVqUZrf-100" value="" style="edgeStyle=elbowEdgeStyle;elbow=horizontal;verticalAlign=bottom;endArrow=open;endSize=8;strokeColor=#FF0000;endFill=1;rounded=0;exitX=1;exitY=0.25;exitDx=0;exitDy=0;entryX=0.01;entryY=0.364;entryDx=0;entryDy=0;entryPerimeter=0;" edge="1" parent="1" target="hN0Aww3Gr3hGMVVqUZrf-95" source="hN0Aww3Gr3hGMVVqUZrf-85">
          <mxGeometry x="484.5" y="148" as="geometry">
            <mxPoint x="345" y="551" as="targetPoint" />
            <mxPoint x="641" y="775" as="sourcePoint" />
            <Array as="points">
              <mxPoint x="750" y="760" />
            </Array>
          </mxGeometry>
        </mxCell>
        <mxCell id="hN0Aww3Gr3hGMVVqUZrf-101" value="" style="edgeStyle=elbowEdgeStyle;elbow=horizontal;verticalAlign=bottom;endArrow=open;endSize=8;strokeColor=#FF0000;endFill=1;rounded=0;entryX=1;entryY=0.75;entryDx=0;entryDy=0;" edge="1" parent="1" source="hN0Aww3Gr3hGMVVqUZrf-97" target="hN0Aww3Gr3hGMVVqUZrf-85">
          <mxGeometry x="484.5" y="148" as="geometry">
            <mxPoint x="684" y="801" as="targetPoint" />
            <mxPoint x="651" y="785" as="sourcePoint" />
            <Array as="points">
              <mxPoint x="760" y="770" />
            </Array>
          </mxGeometry>
        </mxCell>
        <mxCell id="hN0Aww3Gr3hGMVVqUZrf-102" value="" style="edgeStyle=elbowEdgeStyle;elbow=horizontal;verticalAlign=bottom;endArrow=open;endSize=8;strokeColor=#FF0000;endFill=1;rounded=0;entryX=1.005;entryY=0.898;entryDx=0;entryDy=0;entryPerimeter=0;" edge="1" parent="1" source="hN0Aww3Gr3hGMVVqUZrf-84" target="hN0Aww3Gr3hGMVVqUZrf-53">
          <mxGeometry x="484.5" y="148" as="geometry">
            <mxPoint x="290" y="430" as="targetPoint" />
            <mxPoint x="596" y="452" as="sourcePoint" />
            <Array as="points">
              <mxPoint x="420" y="670" />
            </Array>
          </mxGeometry>
        </mxCell>
        <mxCell id="hN0Aww3Gr3hGMVVqUZrf-108" value="" style="edgeStyle=elbowEdgeStyle;elbow=horizontal;verticalAlign=bottom;endArrow=open;endSize=8;strokeColor=#FF0000;endFill=1;rounded=0;exitX=1;exitY=0.25;exitDx=0;exitDy=0;entryX=0;entryY=0.25;entryDx=0;entryDy=0;" edge="1" parent="1" source="hN0Aww3Gr3hGMVVqUZrf-87" target="hN0Aww3Gr3hGMVVqUZrf-103">
          <mxGeometry x="484.5" y="148" as="geometry">
            <mxPoint x="795" y="753" as="targetPoint" />
            <mxPoint x="651" y="793" as="sourcePoint" />
            <Array as="points">
              <mxPoint x="710" y="850" />
            </Array>
          </mxGeometry>
        </mxCell>
        <mxCell id="hN0Aww3Gr3hGMVVqUZrf-109" value="" style="edgeStyle=elbowEdgeStyle;elbow=horizontal;verticalAlign=bottom;endArrow=open;endSize=8;strokeColor=#FF0000;endFill=1;rounded=0;exitX=0;exitY=0.5;exitDx=0;exitDy=0;entryX=1;entryY=0.75;entryDx=0;entryDy=0;" edge="1" parent="1" source="hN0Aww3Gr3hGMVVqUZrf-105" target="hN0Aww3Gr3hGMVVqUZrf-83">
          <mxGeometry x="484.5" y="148" as="geometry">
            <mxPoint x="792" y="866" as="targetPoint" />
            <mxPoint x="650" y="863" as="sourcePoint" />
            <Array as="points">
              <mxPoint x="720" y="860" />
            </Array>
          </mxGeometry>
        </mxCell>
        <mxCell id="hN0Aww3Gr3hGMVVqUZrf-123" value="" style="edgeStyle=elbowEdgeStyle;elbow=horizontal;verticalAlign=bottom;endArrow=open;endSize=8;strokeColor=#FF0000;endFill=1;rounded=0;entryX=0.5;entryY=1;entryDx=0;entryDy=0;" edge="1" parent="1" source="hN0Aww3Gr3hGMVVqUZrf-122" target="hN0Aww3Gr3hGMVVqUZrf-83">
          <mxGeometry x="484.5" y="148" as="geometry">
            <mxPoint x="696" y="904" as="targetPoint" />
            <mxPoint x="820" y="915" as="sourcePoint" />
            <Array as="points">
              <mxPoint x="586" y="990" />
            </Array>
          </mxGeometry>
        </mxCell>
        <mxCell id="hN0Aww3Gr3hGMVVqUZrf-124" value="" style="edgeStyle=elbowEdgeStyle;elbow=horizontal;verticalAlign=bottom;endArrow=open;endSize=8;strokeColor=#FF0000;endFill=1;rounded=0;entryX=0;entryY=0.25;entryDx=0;entryDy=0;exitX=1;exitY=0.5;exitDx=0;exitDy=0;" edge="1" parent="1" source="hN0Aww3Gr3hGMVVqUZrf-88" target="hN0Aww3Gr3hGMVVqUZrf-120">
          <mxGeometry x="484.5" y="148" as="geometry">
            <mxPoint x="596" y="978" as="targetPoint" />
            <mxPoint x="820" y="1033" as="sourcePoint" />
            <Array as="points">
              <mxPoint x="750" y="950" />
            </Array>
          </mxGeometry>
        </mxCell>
      </root>
    </mxGraphModel>
  </diagram>
</mxfile>
